<svg width="248" height="250" viewBox="0 0 248 250" fill="none" xmlns="http://www.w3.org/2000/svg">
    <path fill-rule="evenodd" clip-rule="evenodd"
          d="M117.359 0.068962C148.44 1.84788 159.858 37.4929 180.754 57.8781C196.381 73.1221 213.603 85.9403 224.166 104.262C236.541 125.727 252.07 148.352 246.509 171.93C240.747 196.363 219.585 216.973 194.764 228.926C171.479 240.139 143.747 231.743 117.359 234.125C86.5866 236.903 53.506 258.843 27.5284 244.021C1.7448 229.31 5.40345 194.977 1.61452 168.086C-1.48425 146.093 -0.471038 124.4 7.72215 103.45C15.7847 82.8353 30.8094 66.1846 47.6949 50.2625C68.6935 30.4619 86.6953 -1.68606 117.359 0.068962Z"
          fill="#F8F8F8"/>
</svg>
